<?xml version="1.0" encoding="UTF-8"?>
<svg id="Layer_1" xmlns="http://www.w3.org/2000/svg" version="1.1" viewBox="0 0 16 16">
  <!-- Generator: Adobe Illustrator 29.5.1, SVG Export Plug-In . SVG Version: 2.1.0 Build 141)  -->
  <defs>
    <style>
      .st0 {
        fill: #e0e0e0;
      }
    </style>
  </defs>
  <path class="st0" d="M7,13c0-.6-.4-1-1-1s-1,.4-1,1,.2.7.5.9c-.3.4-.5,1-.5,1.8.7.4,1.3.4,2,0,0-.8-.2-1.4-.5-1.8.3-.2.5-.5.5-.9Z"/>
  <path class="st0" d="M3,13c0-.6-.4-1-1-1s-1,.4-1,1,.2.7.5.9c-.3.4-.5,1-.5,1.8.7.4,1.3.4,2,0,0-.8-.2-1.4-.5-1.8.3-.2.5-.5.5-.9Z"/>
  <path class="st0" d="M15,13c0-.6-.4-1-1-1s-1,.4-1,1,.2.7.5.9c-.3.4-.5,1-.5,1.8.7.4,1.3.4,2,0,0-.8-.2-1.4-.5-1.8.3-.2.5-.5.5-.9Z"/>
  <path class="st0" d="M11,13c0-.6-.4-1-1-1s-1,.4-1,1,.2.7.5.9c-.3.4-.5,1-.5,1.8.7.4,1.3.4,2,0,0-.8-.2-1.4-.5-1.8.3-.2.5-.5.5-.9Z"/>
  <path class="st0" d="M9,3c0,.6.4,1,1,1s1-.4,1-1-.2-.7-.5-.9c.3-.4.5-1,.5-1.8-.7-.4-1.3-.4-2,0,0,.8.2,1.4.5,1.8-.3.2-.5.5-.5.9Z"/>
  <path class="st0" d="M13,3c0,.6.4,1,1,1s1-.4,1-1-.2-.7-.5-.9c.3-.4.5-1,.5-1.8-.7-.4-1.3-.4-2,0,0,.8.2,1.4.5,1.8-.3.2-.5.5-.5.9Z"/>
  <path class="st0" d="M1,3c0,.6.4,1,1,1s1-.4,1-1-.2-.7-.5-.9c.3-.4.5-1,.5-1.8-.7-.4-1.3-.4-2,0,0,.8.2,1.4.5,1.8-.3.2-.5.5-.5.9Z"/>
  <path class="st0" d="M5,3c0,.6.4,1,1,1s1-.4,1-1-.2-.7-.5-.9c.3-.4.5-1,.5-1.8-.7-.4-1.3-.4-2,0,0,.8.2,1.4.5,1.8-.3.2-.5.5-.5.9Z"/>
  <path class="st0" d="M14,3H2c-1.1,0-2,.9-2,2v6c0,1.1.9,2,2,2h12c1.1,0,2-.9,2-2v-6c0-1.1-.9-2-2-2ZM5,9h-2c-.6,0-1-.4-1-1s.4-1,1-1h2c.6,0,1,.4,1,1s-.4,1-1,1ZM8,10c-.6,0-1-.4-1-1s.4-1,1-1,1,.4,1,1-.4,1-1,1ZM13,9h-2c-.6,0-1-.4-1-1s.4-1,1-1h2c.6,0,1,.4,1,1s-.4,1-1,1Z"/>
</svg>