<?xml version="1.0" encoding="UTF-8" standalone="no"?>
<!DOCTYPE svg PUBLIC "-//W3C//DTD SVG 1.1//EN" "http://www.w3.org/Graphics/SVG/1.1/DTD/svg11.dtd">
<svg width="100%" height="100%" viewBox="0 0 16 16" version="1.1" xmlns="http://www.w3.org/2000/svg" xmlns:xlink="http://www.w3.org/1999/xlink" xml:space="preserve" xmlns:serif="http://www.serif.com/" style="fill-rule:evenodd;clip-rule:evenodd;stroke-linejoin:round;stroke-miterlimit:2;">
    <g>
        <path d="M7,13C7,12.4 6.6,12 6,12C5.4,12 5,12.4 5,13C5,13.6 5.2,13.7 5.5,13.9C5.2,14.3 5,14.9 5,15.7C5.7,16.1 6.3,16.1 7,15.7C7,14.9 6.8,14.3 6.5,13.9C6.8,13.7 7,13.4 7,13Z" style="fill:rgb(224,224,224);fill-rule:nonzero;"/>
        <path d="M1,8L15,8C15.6,8 16,8.4 16,9L16,11C16,12.1 15.1,13 14,13L2,13C0.9,13 0,12.1 0,11L0,9C0,8.4 0.4,8 1,8Z" style="fill:rgb(224,224,224);fill-rule:nonzero;"/>
        <path d="M3,13C3,12.4 2.6,12 2,12C1.4,12 1,12.4 1,13C1,13.6 1.2,13.7 1.5,13.9C1.2,14.3 1,14.9 1,15.7C1.7,16.1 2.3,16.1 3,15.7C3,14.9 2.8,14.3 2.5,13.9C2.8,13.7 3,13.4 3,13Z" style="fill:rgb(224,224,224);fill-rule:nonzero;"/>
        <path d="M15,13C15,12.4 14.6,12 14,12C13.4,12 13,12.4 13,13C13,13.6 13.2,13.7 13.5,13.9C13.2,14.3 13,14.9 13,15.7C13.7,16.1 14.3,16.1 15,15.7C15,14.9 14.8,14.3 14.5,13.9C14.8,13.7 15,13.4 15,13Z" style="fill:rgb(224,224,224);fill-rule:nonzero;"/>
        <path d="M11,13C11,12.4 10.6,12 10,12C9.4,12 9,12.4 9,13C9,13.6 9.2,13.7 9.5,13.9C9.2,14.3 9,14.9 9,15.7C9.7,16.1 10.3,16.1 11,15.7C11,14.9 10.8,14.3 10.5,13.9C10.8,13.7 11,13.4 11,13Z" style="fill:rgb(224,224,224);fill-rule:nonzero;"/>
    </g>
    <path d="M5,2L2,2L2,7L1,7L1,2.5C1,1.672 1.672,1 2.5,1L13.5,1C14.328,1 15,1.672 15,2.5L15,7L5,7L5,6L3,6L3,5L4,5L4,4L3,4L3,3L5,3L5,2Z" style="fill:rgb(224,224,224);"/>
</svg>
