<?xml version="1.0" encoding="UTF-8"?>
<svg id="Layer_1" xmlns="http://www.w3.org/2000/svg" version="1.1" viewBox="0 0 16 16">
  <!-- Generator: Adobe Illustrator 29.4.0, SVG Export Plug-In . SVG Version: 2.1.0 Build 152)  -->
  <defs>
    <style>
      .st0 {
        fill: #e0e0e0;
      }
    </style>
  </defs>
  <g>
    <path class="st0" d="M7,13c0-.6-.4-1-1-1s-1,.4-1,1,.2.7.5.9c-.3.4-.5,1-.5,1.8.7.4,1.3.4,2,0,0-.8-.2-1.4-.5-1.8.3-.2.5-.5.5-.9Z"/>
    <path class="st0" d="M1,8h14c.6,0,1,.4,1,1v2c0,1.1-.9,2-2,2H2c-1.1,0-2-.9-2-2v-2c0-.6.4-1,1-1Z"/>
    <path class="st0" d="M3,13c0-.6-.4-1-1-1s-1,.4-1,1,.2.7.5.9c-.3.4-.5,1-.5,1.8.7.4,1.3.4,2,0,0-.8-.2-1.4-.5-1.8.3-.2.5-.5.5-.9Z"/>
    <path class="st0" d="M15,13c0-.6-.4-1-1-1s-1,.4-1,1,.2.7.5.9c-.3.4-.5,1-.5,1.8.7.4,1.3.4,2,0,0-.8-.2-1.4-.5-1.8.3-.2.5-.5.5-.9Z"/>
    <path class="st0" d="M11,13c0-.6-.4-1-1-1s-1,.4-1,1,.2.7.5.9c-.3.4-.5,1-.5,1.8.7.4,1.3.4,2,0,0-.8-.2-1.4-.5-1.8.3-.2.5-.5.5-.9Z"/>
  </g>
  <circle class="st0" cx="9" cy="2" r="2"/>
  <path class="st0" d="M15,7v-1c0-.5-.5-1-1-1h-4v-2h-2v2h-2v-1c0-.5-.5-1-1-1h-1c-.5,0-1,.5-1,1v1h-1c-.5,0-1,.5-1,1v1h14Z"/>
</svg>