<?xml version="1.0" encoding="UTF-8"?>
<svg id="Layer_1" xmlns="http://www.w3.org/2000/svg" version="1.1" viewBox="0 0 16 16">
  <!-- Generator: Adobe Illustrator 29.4.0, SVG Export Plug-In . SVG Version: 2.1.0 Build 152)  -->
  <defs>
    <style>
      .st0 {
        fill: #8eef97;
      }

      .st1 {
        fill: none;
        stroke: #8eef97;
        stroke-linecap: round;
        stroke-linejoin: round;
        stroke-width: 2px;
      }
    </style>
  </defs>
  <g>
    <path class="st0" d="M7,13c0-.6-.4-1-1-1s-1,.4-1,1,.2.7.5.9c-.3.4-.5,1-.5,1.8.7.4,1.3.4,2,0,0-.8-.2-1.4-.5-1.8.3-.2.5-.5.5-.9Z"/>
    <path class="st0" d="M1,8h14c.6,0,1,.4,1,1v2c0,1.1-.9,2-2,2H2c-1.1,0-2-.9-2-2v-2c0-.6.4-1,1-1Z"/>
    <path class="st0" d="M3,13c0-.6-.4-1-1-1s-1,.4-1,1,.2.7.5.9c-.3.4-.5,1-.5,1.8.7.4,1.3.4,2,0,0-.8-.2-1.4-.5-1.8.3-.2.5-.5.5-.9Z"/>
    <path class="st0" d="M15,13c0-.6-.4-1-1-1s-1,.4-1,1,.2.7.5.9c-.3.4-.5,1-.5,1.8.7.4,1.3.4,2,0,0-.8-.2-1.4-.5-1.8.3-.2.5-.5.5-.9Z"/>
    <path class="st0" d="M11,13c0-.6-.4-1-1-1s-1,.4-1,1,.2.7.5.9c-.3.4-.5,1-.5,1.8.7.4,1.3.4,2,0,0-.8-.2-1.4-.5-1.8.3-.2.5-.5.5-.9Z"/>
  </g>
  <path class="st0" d="M3,7V3h4c.6,0,1-.4,1-1s-.4-1-1-1H3c-1.2,0-2,.8-2,2v4h2Z"/>
  <polyline class="st1" points="10 2 14 2 14 6"/>
  <line class="st1" x1="14" y1="2" x2="10" y2="6"/>
</svg>