<?xml version="1.0" encoding="UTF-8"?>
<svg id="Layer_1" data-name="Layer 1" xmlns="http://www.w3.org/2000/svg" viewBox="0 0 16 16">
  <defs>
    <style>
      .cls-1 {
        fill: #e0e0e0;
      }
    </style>
  </defs>
  <g>
    <path class="cls-1" d="M7,13c0-.6-.4-1-1-1s-1,.4-1,1,.2.7.5.9c-.3.4-.5,1-.5,1.8.7.4,1.3.4,2,0,0-.8-.2-1.4-.5-1.8.3-.2.5-.5.5-.9Z"/>
    <path class="cls-1" d="M1,8h14c.6,0,1,.4,1,1v2c0,1.1-.9,2-2,2H2c-1.1,0-2-.9-2-2v-2c0-.6.4-1,1-1Z"/>
    <path class="cls-1" d="M3,13c0-.6-.4-1-1-1s-1,.4-1,1,.2.7.5.9c-.3.4-.5,1-.5,1.8.7.4,1.3.4,2,0,0-.8-.2-1.4-.5-1.8.3-.2.5-.5.5-.9Z"/>
    <path class="cls-1" d="M15,13c0-.6-.4-1-1-1s-1,.4-1,1,.2.7.5.9c-.3.4-.5,1-.5,1.8.7.4,1.3.4,2,0,0-.8-.2-1.4-.5-1.8.3-.2.5-.5.5-.9Z"/>
    <path class="cls-1" d="M11,13c0-.6-.4-1-1-1s-1,.4-1,1,.2.7.5.9c-.3.4-.5,1-.5,1.8.7.4,1.3.4,2,0,0-.8-.2-1.4-.5-1.8.3-.2.5-.5.5-.9Z"/>
  </g>
  <path class="cls-1" d="M9.8,7c-.42-.34-.87-.65-1.35-.9-.14-.07-.29-.11-.45-.1.16,0,.31-.04.45-.11,1.24-.62,2.25-1.67,3.21-2.52.55-.48.9-.55,1.34-.79v4.41h2V1c0-.55-.45-1-1-1-1.5,0-2.62.97-3.66,1.87-.87.76-1.64,1.42-2.34,1.88-.7-.46-1.47-1.11-2.34-1.88-1.04-.91-2.16-1.87-3.66-1.87-.55,0-1,.45-1,1v6h8.8Z"/>
</svg>