<?xml version="1.0" encoding="UTF-8"?>
<svg id="Layer_1" xmlns="http://www.w3.org/2000/svg" version="1.1" viewBox="0 0 16 16">
  <!-- Generator: Adobe Illustrator 29.4.0, SVG Export Plug-In . SVG Version: 2.1.0 Build 152)  -->
  <defs>
    <style>
      .st0 {
        fill: #e0e0e0;
      }

      .st1 {
        fill: #e0e0e0;
      }
    </style>
  </defs>
  <g>
    <path class="st1" d="M7,13c0-.6-.4-1-1-1s-1,.4-1,1,.2.7.5.9c-.3.4-.5,1-.5,1.8.7.4,1.3.4,2,0,0-.8-.2-1.4-.5-1.8.3-.2.5-.5.5-.9Z"/>
    <path class="st1" d="M1,8h14c.6,0,1,.4,1,1v2c0,1.1-.9,2-2,2H2C.9,13,0,12.1,0,11v-2C0,8.4.4,8,1,8Z"/>
    <path class="st1" d="M3,13c0-.6-.4-1-1-1s-1,.4-1,1,.2.7.5.9c-.3.4-.5,1-.5,1.8.7.4,1.3.4,2,0,0-.8-.2-1.4-.5-1.8.3-.2.5-.5.5-.9Z"/>
    <path class="st1" d="M15,13c0-.6-.4-1-1-1s-1,.4-1,1,.2.7.5.9c-.3.4-.5,1-.5,1.8.7.4,1.3.4,2,0,0-.8-.2-1.4-.5-1.8.3-.2.5-.5.5-.9Z"/>
    <path class="st1" d="M11,13c0-.6-.4-1-1-1s-1,.4-1,1,.2.7.5.9c-.3.4-.5,1-.5,1.8.7.4,1.3.4,2,0,0-.8-.2-1.4-.5-1.8.3-.2.5-.5.5-.9Z"/>
  </g>
  <path class="st0" d="M8,7c-.1,0-.3,0-.4,0-.1,0-.2-.1-.3-.2l-4-4,1.4-1.4,2.3,2.3V0s2,0,2,0v3.6l2.3-2.3,1.4,1.4-4,4c-.2.2-.4.3-.7.3Z"/>
</svg>